<svg xmlns="http://www.w3.org/2000/svg" xmlns:xlink="http://www.w3.org/1999/xlink" aria-hidden="true" role="img" class="iconify iconify--logos" width="31.88" height="32" preserveAspectRatio="xMidYMid meet" viewBox="0 0 256 257"><defs><linearGradient id="IconifyId1813088fe1fbc01fb466" x1="-.828%" x2="57.636%" y1="7.652%" y2="78.411%"><stop offset="0%" stop-color="#FF00DC"/><stop offset="100%" stop-color="#FF6B00"/></linearGradient><linearGradient id="IconifyId1813088fe1fbc01fb467" x1="43.376%" x2="50.316%" y1="2.242%" y2="89.03%"><stop offset="0%" stop-color="#FFEA83"/><stop offset="8.333%" stop-color="#FFDD35"/><stop offset="100%" stop-color="#FFA800"/></linearGradient></defs><path fill="url(#IconifyId1813088fe1fbc01fb466)" d="M128.001 0C57.317 0 0 57.307 0 128c0 70.696 57.307 128 128.001 128C198.697 256 256 198.697 256 128.001C256 57.314 198.685 0 128.001 0Zm.001 71.992c31.459 0 57.005 25.543 57.005 57.002c0 31.459-25.546 57.005-57.005 57.005c-31.458 0-57.002-25.546-57.002-57.005c0-31.459 25.544-57.002 57.002-57.002Z"/><path fill="url(#IconifyId1813088fe1fbc01fb467)" d="M128.001 42.966c-47.079 0-85.034 37.956-85.034 85.035c0 47.078 37.956 85.032 85.034 85.032c47.078 0 85.032-37.954 85.032-85.032c0-47.079-37.954-85.035-85.032-85.035Zm0 127.989c-23.645 0-42.971-19.325-42.971-42.97c0-23.645 19.326-42.971 42.971-42.971c23.644 0 42.969 19.326 42.969 42.971c0 23.645-19.325 42.97-42.969 42.97Z"/></svg>
